<svg width="88" height="88" viewBox="0 0 88 88" fill="none" xmlns="http://www.w3.org/2000/svg">
<mask id="path-1-outside-1_50_2" maskUnits="userSpaceOnUse" x="0" y="0" width="88" height="88" fill="black">
<rect fill="white" width="88" height="88"/>
<path d="M35.4871 4.00041C33.9645 4.01101 32.4615 4.22724 31.0026 4.66295C29.5552 5.09574 28.2218 5.72304 27.0116 6.52192C28.3337 9.87857 31.7088 14.1395 35.6184 17.7768C39.7005 21.5748 44.381 24.8017 47.4038 26.2569L47.4392 26.274L47.474 26.2916C50.2517 27.7175 52.2183 29.9615 53.3534 32.437C54.0845 34.031 54.5103 35.7006 54.7585 37.3979C56.9843 35.6633 59.3306 34.2743 61.7159 33.2662C61.5344 30.134 60.8447 26.8495 59.5887 23.5608C56.9545 16.6634 52.3533 11.1106 47.1425 7.72417C43.3973 5.29024 39.3781 3.97338 35.487 4.00041H35.4871ZM22.4052 11.2373C21.5298 12.5946 20.8119 14.1078 20.2664 15.7513C18.4447 21.238 18.5925 28.1207 21.2269 35.0184C22.8212 39.1929 25.1369 42.8737 27.8716 45.8811C30.5658 46.6864 33.2306 47.9308 35.7337 49.6192C37.6677 50.9239 39.3911 52.4173 40.8846 54.0416C41.372 54.16 41.8596 54.2609 42.3467 54.3403C43.2747 51.9217 44.4791 49.5155 45.9634 47.1812C46.8615 45.7676 47.8455 44.4104 48.9099 43.1172C48.9223 42.229 48.9151 41.3684 48.8728 40.5467C48.7581 38.3246 48.402 36.424 47.7496 35.0018C47.0977 33.5796 46.2481 32.586 44.6576 31.7697L44.7278 31.8042C40.8108 29.9182 35.9194 26.4718 31.4178 22.2836C27.8394 18.9546 24.52 15.2257 22.4052 11.2372V11.2373ZM70.302 34.4552C67.9894 34.4741 65.543 35.0107 63.0679 36.0373C57.7878 38.2272 52.486 42.6661 48.5646 48.8325C46.5585 51.9873 45.1169 55.2765 44.2206 58.5016C47.739 64.3996 48.6031 71.1745 46.0685 76.8642C46.4782 77.449 46.9355 77.999 47.4358 78.5086C51.1415 75.3141 55.4122 72.6679 58.4474 69.9505C60.1065 68.4657 61.3627 66.9954 62.0607 65.5952C62.7587 64.1947 62.9989 62.91 62.636 61.1607L62.6147 61.0589L62.6007 60.9562C61.2219 50.9841 63.6408 45.1238 67.1659 41.5386C70.0005 38.6561 72.822 37.1379 74.7685 35.1335C73.3622 34.6665 71.8627 34.4424 70.302 34.4552V34.4552ZM80.0175 38.5528C77.1703 42.0887 73.6599 43.7219 71.5626 45.8549C69.1526 48.3059 67.489 51.2563 68.7008 60.0711C69.2843 63.0682 68.7715 65.9466 67.578 68.3408C66.3629 70.778 64.5458 72.7598 62.5606 74.5371C59.5451 77.2369 56.0666 79.5487 53.1567 81.804C56.4568 82.6605 60.214 82.2461 64.0397 80.6591C69.3199 78.4694 74.622 74.0303 78.5431 67.8639C82.4647 61.6973 84.2341 55.0156 83.9753 49.3096C83.7773 44.9457 82.4284 41.2065 80.0177 38.553L80.0175 38.5528ZM68.7008 60.0711C68.6905 60.0173 68.6823 59.9637 68.671 59.9098L68.7066 60.1139C68.705 60.0996 68.7031 60.0854 68.701 60.0711H68.7008ZM20.7234 47.8529C17.576 47.8245 14.6111 48.5141 12.1157 49.8727C12.1328 49.8732 12.1477 49.8744 12.1649 49.8749C13.6424 49.9271 15.4973 49.753 17.633 50.0443C19.7685 50.3358 22.2703 51.3047 24.1654 53.4473C26.0607 55.5897 27.3602 58.6272 28.2654 62.9894L28.2868 63.091L28.3009 63.1939C28.7208 66.2376 30.6612 67.9983 34.0251 69.6469C36.8953 71.0536 40.5803 72.0581 44.0782 73.0807C45.6448 66.067 41.9278 57.5127 34.0092 52.1713C29.7395 49.2913 25.0593 47.8921 20.7237 47.8529H20.7234ZM6.84189 54.9431C2.51537 62.3896 5.98514 73.3164 15.4206 79.6813C24.7046 85.944 35.9294 85.2026 41.3318 78.7062C38.1753 77.8074 34.597 76.7868 31.3108 75.1764C27.0733 73.0997 23.0344 69.6099 22.2194 64.1902C21.4433 60.4781 20.4063 58.4972 19.5468 57.5255C18.6839 56.5492 18.011 56.3118 16.7989 56.1467C15.5867 55.9811 13.9208 56.0993 11.9479 56.0299C10.4105 55.9758 8.60657 55.7553 6.84189 54.9433V54.9431ZM22.2196 64.1901C22.2234 64.2072 22.2271 64.2229 22.2307 64.2402L22.1953 64.0356C22.2025 64.0876 22.2119 64.1382 22.2198 64.1902L22.2196 64.1901Z"/>
</mask>
<path d="M35.4871 4.00041C33.9645 4.01101 32.4615 4.22724 31.0026 4.66295C29.5552 5.09574 28.2218 5.72304 27.0116 6.52192C28.3337 9.87857 31.7088 14.1395 35.6184 17.7768C39.7005 21.5748 44.381 24.8017 47.4038 26.2569L47.4392 26.274L47.474 26.2916C50.2517 27.7175 52.2183 29.9615 53.3534 32.437C54.0845 34.031 54.5103 35.7006 54.7585 37.3979C56.9843 35.6633 59.3306 34.2743 61.7159 33.2662C61.5344 30.134 60.8447 26.8495 59.5887 23.5608C56.9545 16.6634 52.3533 11.1106 47.1425 7.72417C43.3973 5.29024 39.3781 3.97338 35.487 4.00041H35.4871ZM22.4052 11.2373C21.5298 12.5946 20.8119 14.1078 20.2664 15.7513C18.4447 21.238 18.5925 28.1207 21.2269 35.0184C22.8212 39.1929 25.1369 42.8737 27.8716 45.8811C30.5658 46.6864 33.2306 47.9308 35.7337 49.6192C37.6677 50.9239 39.3911 52.4173 40.8846 54.0416C41.372 54.16 41.8596 54.2609 42.3467 54.3403C43.2747 51.9217 44.4791 49.5155 45.9634 47.1812C46.8615 45.7676 47.8455 44.4104 48.9099 43.1172C48.9223 42.229 48.9151 41.3684 48.8728 40.5467C48.7581 38.3246 48.402 36.424 47.7496 35.0018C47.0977 33.5796 46.2481 32.586 44.6576 31.7697L44.7278 31.8042C40.8108 29.9182 35.9194 26.4718 31.4178 22.2836C27.8394 18.9546 24.52 15.2257 22.4052 11.2372V11.2373ZM70.302 34.4552C67.9894 34.4741 65.543 35.0107 63.0679 36.0373C57.7878 38.2272 52.486 42.6661 48.5646 48.8325C46.5585 51.9873 45.1169 55.2765 44.2206 58.5016C47.739 64.3996 48.6031 71.1745 46.0685 76.8642C46.4782 77.449 46.9355 77.999 47.4358 78.5086C51.1415 75.3141 55.4122 72.6679 58.4474 69.9505C60.1065 68.4657 61.3627 66.9954 62.0607 65.5952C62.7587 64.1947 62.9989 62.91 62.636 61.1607L62.6147 61.0589L62.6007 60.9562C61.2219 50.9841 63.6408 45.1238 67.1659 41.5386C70.0005 38.6561 72.822 37.1379 74.7685 35.1335C73.3622 34.6665 71.8627 34.4424 70.302 34.4552V34.4552ZM80.0175 38.5528C77.1703 42.0887 73.6599 43.7219 71.5626 45.8549C69.1526 48.3059 67.489 51.2563 68.7008 60.0711C69.2843 63.0682 68.7715 65.9466 67.578 68.3408C66.3629 70.778 64.5458 72.7598 62.5606 74.5371C59.5451 77.2369 56.0666 79.5487 53.1567 81.804C56.4568 82.6605 60.214 82.2461 64.0397 80.6591C69.3199 78.4694 74.622 74.0303 78.5431 67.8639C82.4647 61.6973 84.2341 55.0156 83.9753 49.3096C83.7773 44.9457 82.4284 41.2065 80.0177 38.553L80.0175 38.5528ZM68.7008 60.0711C68.6905 60.0173 68.6823 59.9637 68.671 59.9098L68.7066 60.1139C68.705 60.0996 68.7031 60.0854 68.701 60.0711H68.7008ZM20.7234 47.8529C17.576 47.8245 14.6111 48.5141 12.1157 49.8727C12.1328 49.8732 12.1477 49.8744 12.1649 49.8749C13.6424 49.9271 15.4973 49.753 17.633 50.0443C19.7685 50.3358 22.2703 51.3047 24.1654 53.4473C26.0607 55.5897 27.3602 58.6272 28.2654 62.9894L28.2868 63.091L28.3009 63.1939C28.7208 66.2376 30.6612 67.9983 34.0251 69.6469C36.8953 71.0536 40.5803 72.0581 44.0782 73.0807C45.6448 66.067 41.9278 57.5127 34.0092 52.1713C29.7395 49.2913 25.0593 47.8921 20.7237 47.8529H20.7234ZM6.84189 54.9431C2.51537 62.3896 5.98514 73.3164 15.4206 79.6813C24.7046 85.944 35.9294 85.2026 41.3318 78.7062C38.1753 77.8074 34.597 76.7868 31.3108 75.1764C27.0733 73.0997 23.0344 69.6099 22.2194 64.1902C21.4433 60.4781 20.4063 58.4972 19.5468 57.5255C18.6839 56.5492 18.011 56.3118 16.7989 56.1467C15.5867 55.9811 13.9208 56.0993 11.9479 56.0299C10.4105 55.9758 8.60657 55.7553 6.84189 54.9433V54.9431ZM22.2196 64.1901C22.2234 64.2072 22.2271 64.2229 22.2307 64.2402L22.1953 64.0356C22.2025 64.0876 22.2119 64.1382 22.2198 64.1902L22.2196 64.1901Z" fill="#C19977"/>
<path d="M35.4871 4.00041L35.515 8.00031C37.7186 7.98496 39.4948 6.19016 39.4871 3.98648C39.4794 1.78279 37.6908 0.000407928 35.4871 0.000407928L35.4871 4.00041ZM31.0026 4.66295L29.8579 0.830223L29.8567 0.8306L31.0026 4.66295ZM27.0116 6.52192L24.8079 3.18373C23.2303 4.22521 22.5971 6.22893 23.2899 7.9878L27.0116 6.52192ZM35.6184 17.7768L38.3432 14.8484L38.3431 14.8483L35.6184 17.7768ZM47.4038 26.2569L49.1424 22.6545L49.1389 22.6528L47.4038 26.2569ZM47.4392 26.274L49.2478 22.7063C49.2246 22.6945 49.2013 22.683 49.1779 22.6716L47.4392 26.274ZM47.474 26.2916L49.3006 22.7331C49.2946 22.73 49.2886 22.7269 49.2826 22.7239L47.474 26.2916ZM53.3534 32.437L49.7174 34.1043L49.7176 34.1046L53.3534 32.437ZM54.7585 37.3979L50.8006 37.9768C51.0067 39.386 51.9466 40.5793 53.2682 41.1099C54.5899 41.6405 56.094 41.4284 57.2173 40.5529L54.7585 37.3979ZM61.7159 33.2662L63.273 36.9506C64.8315 36.292 65.807 34.7239 65.7092 33.0348L61.7159 33.2662ZM59.5887 23.5608L63.3255 22.1336L63.3255 22.1336L59.5887 23.5608ZM47.1425 7.72417L49.3222 4.37021L49.3222 4.37019L47.1425 7.72417ZM35.487 4.00041L35.4592 0.000504422C33.2555 0.0158114 31.4793 1.8106 31.487 4.0143C31.4946 6.218 33.2832 8.00041 35.487 8.00041L35.487 4.00041ZM22.4052 11.2373L25.7666 13.4054C26.1835 12.7592 26.4052 12.0064 26.4052 11.2373H22.4052ZM20.2664 15.7513L24.0626 17.0117L24.0628 17.0113L20.2664 15.7513ZM21.2269 35.0184L24.9637 33.5913L24.9636 33.5912L21.2269 35.0184ZM27.8716 45.8811L24.9123 48.5722C25.4018 49.1105 26.0289 49.5051 26.726 49.7135L27.8716 45.8811ZM35.7337 49.6192L37.9707 46.3032L37.9705 46.3031L35.7337 49.6192ZM40.8846 54.0416L37.9401 56.749C38.4756 57.3314 39.1718 57.7419 39.9406 57.9286L40.8846 54.0416ZM42.3467 54.3403L41.7034 58.2882C43.5742 58.5931 45.4022 57.5429 46.0812 55.7732L42.3467 54.3403ZM45.9634 47.1812L49.3389 49.3274L49.3396 49.3263L45.9634 47.1812ZM48.9099 43.1172L51.9984 45.6591C52.5756 44.9578 52.8969 44.0809 52.9095 43.1727L48.9099 43.1172ZM48.8728 40.5467L52.8675 40.3411L52.8675 40.3405L48.8728 40.5467ZM47.7496 35.0018L44.1135 36.6687L44.1138 36.6694L47.7496 35.0018ZM44.6576 31.7697L46.4241 28.1809C44.4538 27.211 42.0701 28.011 41.0837 29.9731C40.0974 31.9352 40.8774 34.3256 42.8311 35.3284L44.6576 31.7697ZM44.7278 31.8042L42.9925 35.4082C44.9768 36.3637 47.3601 35.5353 48.3242 33.5552C49.2882 31.575 48.4702 29.1881 46.4943 28.2155L44.7278 31.8042ZM31.4178 22.2836L34.1424 19.355L34.1423 19.3549L31.4178 22.2836ZM22.4052 11.2372L25.9392 9.3634C25.0785 7.74018 23.2227 6.91199 21.4398 7.35543C19.6568 7.79887 18.4052 9.39989 18.4052 11.2372H22.4052ZM63.0679 36.0373L64.6004 39.7321L64.6004 39.7321L63.0679 36.0373ZM48.5646 48.8325L45.1893 46.686L45.1892 46.6861L48.5646 48.8325ZM44.2206 58.5016L40.3667 57.4306C40.0739 58.4842 40.2252 59.6117 40.7854 60.5509L44.2206 58.5016ZM46.0685 76.8642L42.4147 75.2365C41.843 76.5196 41.9864 78.0086 42.7924 79.1592L46.0685 76.8642ZM47.4358 78.5086L44.5814 81.3108C46.0586 82.8156 48.4503 82.9151 50.0475 81.5383L47.4358 78.5086ZM58.4474 69.9505L55.7798 66.97L55.7794 66.9704L58.4474 69.9505ZM62.0607 65.5952L65.6405 67.3798L65.6407 67.3795L62.0607 65.5952ZM62.636 61.1607L66.5525 60.348L66.5517 60.344L62.636 61.1607ZM62.6147 61.0589L58.6516 61.601C58.6642 61.693 58.68 61.7846 58.699 61.8756L62.6147 61.0589ZM62.6007 60.9562L66.5638 60.4142L66.563 60.4084L62.6007 60.9562ZM67.1659 41.5386L64.3139 38.7339L64.3136 38.7342L67.1659 41.5386ZM74.7685 35.1335L77.6381 37.9202C78.5972 36.9326 78.981 35.5212 78.6541 34.1838C78.3273 32.8465 77.3357 31.7712 76.0291 31.3374L74.7685 35.1335ZM80.0175 38.5528L82.8447 35.7232C82.0417 34.9207 80.9354 34.4974 79.8018 34.5586C78.6682 34.6198 77.614 35.1598 76.902 36.0441L80.0175 38.5528ZM71.5626 45.8549L68.7104 43.0504L68.7104 43.0505L71.5626 45.8549ZM68.7008 60.0711L64.7381 60.6159C64.7482 60.6895 64.7603 60.7627 64.7745 60.8355L68.7008 60.0711ZM67.578 68.3408L71.1577 70.1255L71.1578 70.1253L67.578 68.3408ZM62.5606 74.5371L65.2287 77.5173L65.2288 77.5173L62.5606 74.5371ZM53.1567 81.804L50.7063 78.6424C49.5008 79.5768 48.9315 81.1153 49.2386 82.6093C49.5456 84.1032 50.6755 85.2926 52.1518 85.6757L53.1567 81.804ZM64.0397 80.6591L62.5075 76.9642L62.5071 76.9644L64.0397 80.6591ZM78.5431 67.8639L75.1678 65.7174L75.1677 65.7175L78.5431 67.8639ZM83.9753 49.3096L79.9794 49.4908L79.9794 49.4909L83.9753 49.3096ZM80.0177 38.553L82.9784 35.8633C82.935 35.8156 82.8905 35.7689 82.8449 35.7233L80.0177 38.553ZM68.7008 60.0711L64.7716 60.8202C65.1312 62.7065 66.7805 64.0711 68.7008 64.0711V60.0711ZM68.671 59.9098L72.5858 59.0889C72.1379 56.9527 70.0601 55.57 67.9166 55.9816C65.7731 56.3933 64.3553 58.4473 64.7305 60.5975L68.671 59.9098ZM68.7066 60.1139L64.7662 60.8015C65.138 62.9324 67.1365 64.3817 69.2775 64.073C71.4184 63.7643 72.9261 61.8095 72.6808 59.6603L68.7066 60.1139ZM68.701 60.0711L72.6566 59.4771C72.3626 57.5193 70.6807 56.0711 68.701 56.0711V60.0711ZM20.7234 47.8529L20.6873 51.8528C20.6993 51.8529 20.7113 51.8529 20.7234 51.8529L20.7234 47.8529ZM12.1157 49.8727L10.2031 46.3596C8.61623 47.2236 7.80555 49.044 8.22501 50.8014C8.64447 52.5588 10.1899 53.8168 11.9959 53.8709L12.1157 49.8727ZM12.1649 49.8749L12.306 45.8774C12.2989 45.8772 12.2918 45.8769 12.2847 45.8767L12.1649 49.8749ZM17.633 50.0443L18.174 46.081L18.1736 46.081L17.633 50.0443ZM24.1654 53.4473L21.1693 56.0974L21.1695 56.0977L24.1654 53.4473ZM28.2654 62.9894L24.3488 63.8021L24.3513 63.8137L28.2654 62.9894ZM28.2868 63.091L32.2502 62.5506C32.2372 62.4554 32.2208 62.3606 32.2009 62.2666L28.2868 63.091ZM28.3009 63.1939L24.3375 63.7343L24.3384 63.7407L28.3009 63.1939ZM34.0251 69.6469L35.7855 66.0551L35.7854 66.055L34.0251 69.6469ZM44.0782 73.0807L42.9557 76.92C44.0171 77.2303 45.1595 77.0874 46.1117 76.5252C47.0639 75.9631 47.7409 75.0318 47.982 73.9527L44.0782 73.0807ZM34.0092 52.1713L31.7724 55.4874L31.7724 55.4874L34.0092 52.1713ZM20.7237 47.8529L20.7599 43.8531C20.7478 43.853 20.7358 43.8529 20.7237 43.8529L20.7237 47.8529ZM6.84189 54.9431H10.8419C10.8419 53.1347 9.62858 51.5513 7.88246 51.0808C6.13634 50.6104 4.29177 51.37 3.38329 52.9336L6.84189 54.9431ZM15.4206 79.6813L17.6575 76.3652L17.6575 76.3652L15.4206 79.6813ZM41.3318 78.7062L44.4073 81.2638C45.2722 80.2237 45.5528 78.817 45.1533 77.5247C44.7538 76.2324 43.7282 75.2295 42.4272 74.8591L41.3318 78.7062ZM31.3108 75.1764L29.5504 78.7683L29.5506 78.7683L31.3108 75.1764ZM22.2194 64.1902L26.175 63.5954C26.1637 63.5205 26.1503 63.4458 26.1348 63.3716L22.2194 64.1902ZM19.5468 57.5255L16.5497 60.1746L16.5507 60.1757L19.5468 57.5255ZM16.7989 56.1467L16.2575 60.1099L16.2591 60.1101L16.7989 56.1467ZM11.9479 56.0299L12.0887 52.0324L12.0885 52.0324L11.9479 56.0299ZM6.84189 54.9433H2.84189C2.84189 56.5051 3.75093 57.9241 5.16976 58.577L6.84189 54.9433ZM22.2196 64.1901L25.0576 61.3712C23.8035 60.1087 21.8663 59.8264 20.3041 60.6785C18.7419 61.5307 17.9305 63.3124 18.3132 65.0502L22.2196 64.1901ZM22.2307 64.2402L18.3146 65.0551C18.7593 67.1922 20.8354 68.5782 22.9797 68.1694C25.124 67.7607 26.5446 65.7083 26.172 63.5574L22.2307 64.2402ZM22.1953 64.0356L26.1366 63.3529C25.7641 61.2023 23.7364 59.7474 21.5799 60.0832C19.4233 60.419 17.934 62.4215 18.233 64.5835L22.1953 64.0356ZM22.2198 64.1902L19.3818 67.0091C20.6012 68.2368 22.4718 68.5412 24.0176 67.7634C25.5634 66.9857 26.4338 65.3022 26.1747 63.5913L22.2198 64.1902ZM35.4593 0.00050497C33.574 0.0136374 31.694 0.281881 29.8579 0.830223L32.1472 8.49567C33.229 8.1726 34.3551 8.00839 35.515 8.00031L35.4593 0.00050497ZM29.8567 0.8306C28.0351 1.37526 26.3452 2.16884 24.8079 3.18373L29.2154 9.86011C30.0983 9.27724 31.0752 8.81622 32.1485 8.49529L29.8567 0.8306ZM23.2899 7.9878C24.9341 12.1623 28.8148 16.9104 32.8938 20.7054L38.3431 14.8483C34.6028 11.3685 31.7333 7.59483 30.7334 5.05603L23.2899 7.9878ZM32.8937 20.7053C37.19 24.7026 42.1973 28.1898 45.6687 29.861L49.1389 22.6528C46.5647 21.4136 42.211 18.4471 38.3432 14.8484L32.8937 20.7053ZM45.6652 29.8593L45.7006 29.8764L49.1779 22.6716L49.1424 22.6545L45.6652 29.8593ZM45.6306 29.8418L45.6654 29.8594L49.2826 22.7239L49.2478 22.7063L45.6306 29.8418ZM45.6473 29.8502C47.5711 30.8377 48.9292 32.3853 49.7174 34.1043L56.9893 30.7697C55.5073 27.5377 52.9324 24.5973 49.3006 22.7331L45.6473 29.8502ZM49.7176 34.1046C50.2518 35.2693 50.5923 36.5527 50.8006 37.9768L58.7164 36.819C58.4282 34.8486 57.9171 32.7927 56.9892 30.7695L49.7176 34.1046ZM57.2173 40.5529C59.1869 39.018 61.2326 37.813 63.273 36.9506L60.1587 29.5817C57.4285 30.7356 54.7816 32.3087 52.2997 34.2429L57.2173 40.5529ZM65.7092 33.0348C65.5033 29.4815 64.7236 25.7943 63.3255 22.1336L55.852 24.9879C56.9659 27.9047 57.5655 30.7864 57.7226 33.4975L65.7092 33.0348ZM63.3255 22.1336C60.4028 14.4811 55.2743 8.23838 49.3222 4.37021L44.9628 11.0781C49.4324 13.9828 53.5061 18.8456 55.852 24.9879L63.3255 22.1336ZM49.3222 4.37019C45.0492 1.59332 40.2743 -0.0329424 35.4592 0.000504422L35.5147 8.00031C38.4818 7.9797 41.7453 8.98716 44.9629 11.0781L49.3222 4.37019ZM35.487 8.00041H35.4871V0.000407928H35.487V8.00041ZM19.0437 9.06924C17.9741 10.7277 17.1147 12.549 16.4701 14.4912L24.0628 17.0113C24.5091 15.6667 25.0855 14.4615 25.7666 13.4054L19.0437 9.06924ZM16.4702 14.4908C14.3226 20.9591 14.5685 28.7957 17.4902 36.4456L24.9636 33.5912C22.6165 27.4457 22.5668 21.5169 24.0626 17.0117L16.4702 14.4908ZM17.4902 36.4455C19.264 41.0902 21.8447 45.1989 24.9123 48.5722L30.831 43.1899C28.4291 40.5486 26.3784 37.2957 24.9637 33.5913L17.4902 36.4455ZM26.726 49.7135C29.0318 50.4028 31.3287 51.4728 33.4968 52.9353L37.9705 46.3031C35.1324 44.3887 32.0998 42.9701 29.0173 42.0486L26.726 49.7135ZM33.4966 52.9352C35.171 54.0648 36.6572 55.3537 37.9401 56.749L43.8291 51.3342C42.125 49.4809 40.1643 47.7831 37.9707 46.3032L33.4966 52.9352ZM39.9406 57.9286C40.5153 58.0682 41.1037 58.1905 41.7034 58.2882L42.99 50.3923C42.6155 50.3313 42.2287 50.2517 41.8285 50.1546L39.9406 57.9286ZM46.0812 55.7732C46.9127 53.6063 47.9963 51.4388 49.3389 49.3274L42.5879 45.035C40.962 47.5922 39.6367 50.2372 38.6122 52.9074L46.0812 55.7732ZM49.3396 49.3263C50.15 48.0507 51.0379 46.8261 51.9984 45.6591L45.8215 40.5752C44.6532 41.9947 43.573 43.4845 42.5872 45.0361L49.3396 49.3263ZM52.9095 43.1727C52.9226 42.2314 52.9157 41.2781 52.8675 40.3411L44.8781 40.7523C44.9144 41.4586 44.9219 42.2265 44.9103 43.0616L52.9095 43.1727ZM52.8675 40.3405C52.7406 37.8834 52.3381 35.4112 51.3855 33.3342L44.1138 36.6694C44.4658 37.4369 44.7755 38.7658 44.8781 40.7529L52.8675 40.3405ZM51.3858 33.3349C50.39 31.1627 48.935 29.4689 46.484 28.211L42.8311 35.3284C43.5613 35.7031 43.8053 35.9964 44.1135 36.6687L51.3858 33.3349ZM42.891 35.3585L42.9612 35.393L46.4943 28.2155L46.4241 28.1809L42.891 35.3585ZM46.4631 28.2003C42.9986 26.5321 38.4342 23.3479 34.1424 19.355L28.6931 25.2121C33.4047 29.5956 38.623 33.3044 42.9925 35.4082L46.4631 28.2003ZM34.1423 19.3549C30.7087 16.1606 27.7537 12.7856 25.9392 9.3634L18.8712 13.1109C21.2863 17.6659 24.9702 21.7486 28.6932 25.2122L34.1423 19.3549ZM18.4052 11.2372V11.2373H26.4052V11.2372H18.4052ZM70.2694 30.4554C67.3645 30.479 64.409 31.1506 61.5354 32.3425L64.6004 39.7321C66.6769 38.8708 68.6143 38.4691 70.3345 38.4551L70.2694 30.4554ZM61.5355 32.3425C55.4096 34.8832 49.4981 39.9105 45.1893 46.686L51.9399 50.9789C55.474 45.4216 60.1659 41.5713 64.6004 39.7321L61.5355 32.3425ZM45.1892 46.6861C42.9749 50.1684 41.3703 53.8192 40.3667 57.4306L48.0746 59.5727C48.8635 56.7338 50.1421 53.8062 51.94 50.9788L45.1892 46.6861ZM40.7854 60.5509C43.7922 65.5912 44.3079 70.9866 42.4147 75.2365L49.7224 78.4919C52.8984 71.3624 51.6859 63.2081 47.6558 56.4524L40.7854 60.5509ZM42.7924 79.1592C43.3285 79.9244 43.9268 80.6441 44.5814 81.3108L50.2902 75.7064C49.9442 75.3539 49.6279 74.9735 49.3446 74.5691L42.7924 79.1592ZM50.0475 81.5383C51.7605 80.0616 53.625 78.6939 55.5581 77.2766C57.43 75.9042 59.4246 74.4445 61.1155 72.9307L55.7794 66.9704C54.435 68.1739 52.7766 69.3961 50.828 70.8248C48.9405 72.2085 46.8168 73.7611 44.8241 75.4789L50.0475 81.5383ZM61.1151 72.9311C62.9495 71.2892 64.6213 69.4243 65.6405 67.3798L58.4809 63.8106C58.104 64.5665 57.2634 65.6421 55.7798 66.97L61.1151 72.9311ZM65.6407 67.3795C66.7065 65.2411 67.1122 63.0453 66.5525 60.348L58.7194 61.9733C58.8856 62.7746 58.811 63.1482 58.4807 63.8109L65.6407 67.3795ZM66.5517 60.344L66.5305 60.2422L58.699 61.8756L58.7202 61.9774L66.5517 60.344ZM66.5778 60.5168L66.5638 60.4142L58.6376 61.4983L58.6516 61.601L66.5778 60.5168ZM66.563 60.4084C65.3112 51.3548 67.5614 46.8416 70.0181 44.343L64.3136 38.7342C59.7202 43.406 57.1326 50.6134 58.6384 61.5041L66.563 60.4084ZM70.0179 44.3432C71.2202 43.1206 72.4385 42.1659 73.7207 41.1913C74.9213 40.2787 76.4051 39.1898 77.6381 37.9202L71.899 32.3468C71.1854 33.0816 70.2852 33.754 68.8797 34.8222C67.5559 35.8285 65.9461 37.0741 64.3139 38.7339L70.0179 44.3432ZM76.0291 31.3374C74.1751 30.7217 72.2358 30.4392 70.2691 30.4554L70.3348 38.4551C71.4897 38.4456 72.5493 38.6113 73.5079 38.9297L76.0291 31.3374ZM76.902 36.0441C75.7931 37.4212 74.5195 38.4765 73.1155 39.525C71.8741 40.452 70.0427 41.6954 68.7104 43.0504L74.4148 48.6594C75.1798 47.8813 76.1523 47.2417 77.9022 45.9349C79.4895 44.7496 81.3947 43.2203 83.133 41.0615L76.902 36.0441ZM68.7104 43.0505C67.1958 44.5908 65.704 46.5284 64.9057 49.5569C64.1495 52.4254 64.0979 55.9598 64.7381 60.6159L72.6635 59.5264C72.0918 55.3677 72.2662 53.0194 72.6414 51.5962C72.9743 50.3331 73.5194 49.57 74.4148 48.6593L68.7104 43.0505ZM64.7745 60.8355C65.1784 62.9103 64.8257 64.8961 63.9981 66.5563L71.1578 70.1253C72.7173 66.997 73.3901 63.2261 72.6271 59.3067L64.7745 60.8355ZM63.9982 66.5561C63.1041 68.3494 61.7024 69.9366 59.8925 71.557L65.2288 77.5173C67.3893 75.5829 69.6216 73.2066 71.1577 70.1255L63.9982 66.5561ZM59.8925 71.557C56.9954 74.1507 53.9578 76.1223 50.7063 78.6424L55.6071 84.9656C58.1753 82.9751 62.0947 80.3231 65.2287 77.5173L59.8925 71.557ZM52.1518 85.6757C56.4822 86.7997 61.1424 86.1914 65.5724 84.3538L62.5071 76.9644C59.2856 78.3007 56.4313 78.5214 54.1615 77.9323L52.1518 85.6757ZM65.572 84.354C71.698 81.8135 77.61 76.7858 81.9184 70.0102L75.1677 65.7175C71.6339 71.2748 66.9417 75.1253 62.5075 76.9642L65.572 84.354ZM81.9183 70.0104C86.2273 63.2346 88.2716 55.7503 87.9711 49.1283L79.9794 49.4909C80.1967 54.2809 78.702 60.16 75.1678 65.7174L81.9183 70.0104ZM87.9711 49.1283C87.742 44.0752 86.1615 39.3671 82.9784 35.8633L77.057 41.2426C78.6953 43.046 79.8127 45.8161 79.9794 49.4908L87.9711 49.1283ZM82.8449 35.7233L82.8447 35.7232L77.1903 41.3824L77.1905 41.3826L82.8449 35.7233ZM72.63 59.3221C72.6317 59.3311 72.6325 59.3354 72.6315 59.3299C72.631 59.3272 72.6304 59.3237 72.6293 59.3173C72.6283 59.312 72.6267 59.3027 72.6251 59.2936C72.6191 59.2594 72.6051 59.1809 72.5858 59.0889L64.7561 60.7308C64.7517 60.7098 64.7488 60.6944 64.7475 60.6874C64.7463 60.6811 64.746 60.679 64.7474 60.6874C64.7482 60.6917 64.7489 60.6958 64.7504 60.7039C64.7516 60.711 64.7534 60.7209 64.7553 60.7317C64.7591 60.753 64.7647 60.7842 64.7716 60.8202L72.63 59.3221ZM64.7305 60.5975L64.7662 60.8015L72.6471 59.4263L72.6114 59.2222L64.7305 60.5975ZM72.6808 59.6603C72.6739 59.5994 72.6658 59.5384 72.6566 59.4771L64.7453 60.6652C64.7404 60.6324 64.7361 60.5998 64.7324 60.5675L72.6808 59.6603ZM68.701 56.0711H68.7008V64.0711H68.701V56.0711ZM20.7595 43.8531C17.0155 43.8193 13.3656 44.6378 10.2031 46.3596L14.0284 53.3858C15.8566 52.3904 18.1365 51.8298 20.6873 51.8528L20.7595 43.8531ZM11.9959 53.8709C11.971 53.8702 11.9512 53.8693 11.9393 53.8687C11.9291 53.8683 11.921 53.8678 11.9269 53.8681C11.929 53.8682 11.9451 53.8691 11.9635 53.87C11.9835 53.8709 12.0116 53.8721 12.045 53.8731L12.2847 45.8767C12.3095 45.8775 12.3293 45.8783 12.3412 45.8789C12.3514 45.8794 12.3596 45.8798 12.3537 45.8795C12.3516 45.8794 12.3354 45.8785 12.3171 45.8777C12.297 45.8767 12.269 45.8755 12.2356 45.8745L11.9959 53.8709ZM12.0237 53.8724C14.2203 53.95 15.1536 53.7431 17.0924 54.0076L18.1736 46.081C15.841 45.7628 13.0645 45.9042 12.306 45.8774L12.0237 53.8724ZM17.092 54.0075C18.5185 54.2023 20.0529 54.8353 21.1693 56.0974L27.1616 50.7972C24.4877 47.7742 21.0186 46.4693 18.174 46.081L17.092 54.0075ZM21.1695 56.0977C22.4114 57.5016 23.5118 59.7683 24.3489 63.8021L32.182 62.1766C31.2087 57.4861 29.71 53.6779 27.1613 50.7969L21.1695 56.0977ZM24.3513 63.8137L24.3727 63.9154L32.2009 62.2666L32.1795 62.165L24.3513 63.8137ZM24.3235 63.6313L24.3375 63.7343L32.2642 62.6536L32.2502 62.5506L24.3235 63.6313ZM24.3384 63.7407C25.0309 68.7595 28.46 71.3741 32.2649 73.2388L35.7854 66.055C32.8624 64.6225 32.4107 63.7156 32.2633 62.6472L24.3384 63.7407ZM32.2648 73.2387C35.524 74.836 39.6334 75.9487 42.9557 76.92L45.2006 69.2414C41.5272 68.1675 38.2667 67.2711 35.7855 66.0551L32.2648 73.2387ZM47.982 73.9527C49.9865 64.9785 45.2006 54.8954 36.2461 48.8552L31.7724 55.4874C38.6549 60.13 41.3031 67.1555 40.1744 72.2087L47.982 73.9527ZM36.2461 48.8552C31.3579 45.558 25.9181 43.8997 20.7599 43.8531L20.6876 51.8528C24.2006 51.8845 28.1212 53.0246 31.7724 55.4874L36.2461 48.8552ZM20.7237 43.8529H20.7234V51.8529H20.7237V43.8529ZM3.38329 52.9336C-2.34827 62.7984 2.6417 75.886 13.1837 82.9973L17.6575 76.3652C9.32859 70.7468 7.37902 61.9808 10.3005 56.9526L3.38329 52.9336ZM13.1837 82.9973C23.5712 90.0045 37.2757 89.8395 44.4073 81.2638L38.2563 76.1486C34.583 80.5657 25.8379 81.8835 17.6575 76.3652L13.1837 82.9973ZM42.4272 74.8591C39.22 73.9459 35.9851 73.0126 33.071 71.5845L29.5506 78.7683C33.2089 80.5611 37.1307 81.669 40.2363 82.5533L42.4272 74.8591ZM33.0711 71.5846C29.3926 69.7818 26.7105 67.1571 26.175 63.5954L18.2639 64.785C19.3583 72.0628 24.7539 76.4175 29.5504 78.7683L33.0711 71.5846ZM26.1348 63.3716C25.2917 59.339 24.0566 56.5866 22.5429 54.8753L16.5507 60.1757C16.756 60.4078 17.595 61.6172 18.3041 65.0088L26.1348 63.3716ZM22.5439 54.8765C21.8645 54.1078 21.0629 53.4115 20.0126 52.9153C19.02 52.4463 18.0581 52.2813 17.3386 52.1833L16.2591 60.1101C16.4947 60.1422 16.6094 60.1656 16.6634 60.1789C16.7052 60.1891 16.6688 60.1834 16.5951 60.1486C16.5598 60.1319 16.5251 60.1129 16.4932 60.0929C16.4617 60.0731 16.4404 60.0571 16.4304 60.0491C16.4123 60.0347 16.4495 60.0612 16.5497 60.1746L22.5439 54.8765ZM17.3403 52.1835C16.4288 52.059 15.4534 52.0521 14.6578 52.0523C13.7797 52.0524 12.9821 52.0638 12.0887 52.0324L11.8072 60.0274C12.8866 60.0654 13.9084 60.0524 14.6595 60.0523C15.4932 60.0521 15.9568 60.0688 16.2575 60.1099L17.3403 52.1835ZM12.0885 52.0324C10.8002 51.9871 9.59514 51.807 8.51402 51.3095L5.16976 58.577C7.61799 59.7036 10.0207 59.9646 11.8074 60.0274L12.0885 52.0324ZM10.8419 54.9433V54.9431H2.84189V54.9433H10.8419ZM18.3132 65.0502C18.3164 65.0651 18.3193 65.0775 18.321 65.0851C18.3218 65.0889 18.3226 65.0924 18.323 65.0942C18.3235 65.0964 18.3237 65.097 18.3237 65.0973C18.3239 65.0979 18.3228 65.0934 18.3213 65.0865C18.3198 65.0794 18.3174 65.0685 18.3146 65.0551L26.1468 63.4253C26.1379 63.3823 26.13 63.3474 26.1267 63.3328C26.1258 63.329 26.125 63.3255 26.1246 63.3236C26.1241 63.3213 26.124 63.3206 26.1239 63.3202C26.1237 63.3195 26.1246 63.3236 26.126 63.3299L18.3132 65.0502ZM26.172 63.5574L26.1366 63.3529L18.254 64.7183L18.2894 64.9229L26.172 63.5574ZM18.233 64.5835C18.2443 64.6652 18.2558 64.7351 18.2607 64.7647C18.2643 64.7865 18.2645 64.7876 18.266 64.7963C18.2667 64.801 18.2661 64.7972 18.2649 64.7892L26.1747 63.5913C26.1695 63.5572 26.1648 63.5277 26.1613 63.5066C26.1596 63.496 26.158 63.4863 26.1568 63.4789C26.1553 63.47 26.1547 63.4668 26.1538 63.4611C26.1522 63.4516 26.1523 63.4516 26.1528 63.4551C26.1535 63.4593 26.1553 63.471 26.1576 63.4877L18.233 64.5835ZM25.0577 61.3714L25.0576 61.3712L19.3816 67.0089L19.3818 67.0091L25.0577 61.3714Z" fill="black" mask="url(#path-1-outside-1_50_2)"/>
</svg>
