<svg width="216" height="80" viewBox="0 0 216 80" fill="none" xmlns="http://www.w3.org/2000/svg">
<g clip-path="url(#clip0_5_2)">
<path d="M30.4871 0.000407928C28.9645 0.011014 27.4615 0.227241 26.0026 0.662945C24.5552 1.09574 23.2218 1.72304 22.0116 2.52192C23.3337 5.87857 26.7088 10.1395 30.6184 13.7768C34.7005 17.5748 39.381 20.8017 42.4038 22.2569L42.4392 22.274L42.474 22.2916C45.2517 23.7175 47.2183 25.9615 48.3534 28.437C49.0845 30.031 49.5103 31.7006 49.7585 33.3979C51.9843 31.6633 54.3306 30.2743 56.7159 29.2662C56.5344 26.134 55.8447 22.8495 54.5887 19.5608C51.9545 12.6634 47.3533 7.11059 42.1425 3.72417C38.3973 1.29024 34.3781 -0.0266205 30.487 0.000407928H30.4871ZM17.4052 7.23735C16.5298 8.59458 15.8119 10.1078 15.2664 11.7513C13.4447 17.238 13.5925 24.1207 16.2269 31.0184C17.8212 35.1929 20.1369 38.8737 22.8716 41.8811C25.5658 42.6864 28.2306 43.9308 30.7337 45.6192C32.6677 46.9239 34.3911 48.4173 35.8846 50.0416C36.372 50.16 36.8596 50.2609 37.3467 50.3403C38.2747 47.9217 39.4791 45.5155 40.9634 43.1812C41.8615 41.7676 42.8455 40.4104 43.9099 39.1172C43.9223 38.229 43.9151 37.3684 43.8728 36.5467C43.7581 34.3246 43.402 32.424 42.7496 31.0018C42.0977 29.5796 41.2481 28.586 39.6576 27.7697L39.7278 27.8042C35.8108 25.9182 30.9194 22.4718 26.4178 18.2836C22.8394 14.9546 19.52 11.2257 17.4052 7.23717V7.23735ZM65.302 30.4552C62.9894 30.4741 60.543 31.0107 58.0679 32.0373C52.7878 34.2272 47.486 38.6661 43.5646 44.8325C41.5585 47.9873 40.1169 51.2765 39.2206 54.5016C42.739 60.3996 43.6031 67.1745 41.0685 72.8642C41.4782 73.449 41.9355 73.999 42.4358 74.5086C46.1415 71.3141 50.4122 68.6679 53.4474 65.9505C55.1065 64.4657 56.3627 62.9954 57.0607 61.5952C57.7587 60.1947 57.9989 58.91 57.636 57.1607L57.6147 57.0589L57.6007 56.9562C56.2219 46.9841 58.6408 41.1238 62.1659 37.5386C65.0005 34.6561 67.822 33.1379 69.7685 31.1335C68.3622 30.6665 66.8627 30.4424 65.302 30.4552V30.4552ZM75.0175 34.5528C72.1703 38.0887 68.6599 39.7219 66.5626 41.8549C64.1526 44.3059 62.489 47.2563 63.7008 56.0711C64.2843 59.0682 63.7715 61.9466 62.578 64.3408C61.3629 66.778 59.5458 68.7598 57.5606 70.5371C54.5451 73.2369 51.0666 75.5487 48.1567 77.804C51.4568 78.6605 55.214 78.2461 59.0397 76.6591C64.3199 74.4694 69.622 70.0303 73.5431 63.8639C77.4647 57.6973 79.2341 51.0156 78.9753 45.3096C78.7773 40.9457 77.4284 37.2065 75.0177 34.553L75.0175 34.5528ZM63.7008 56.0711C63.6905 56.0173 63.6823 55.9637 63.671 55.9098L63.7066 56.1139C63.705 56.0996 63.7031 56.0854 63.701 56.0711H63.7008ZM15.7234 43.8529C12.576 43.8245 9.61113 44.5141 7.11572 45.8727C7.13284 45.8732 7.14773 45.8744 7.16485 45.8749C8.64241 45.9271 10.4973 45.753 12.633 46.0443C14.7685 46.3358 17.2703 47.3047 19.1654 49.4473C21.0607 51.5897 22.3602 54.6272 23.2654 58.9894L23.2868 59.091L23.3009 59.1939C23.7208 62.2376 25.6612 63.9983 29.0251 65.6469C31.8953 67.0536 35.5803 68.0581 39.0782 69.0807C40.6448 62.067 36.9278 53.5127 29.0092 48.1713C24.7395 45.2913 20.0593 43.8921 15.7237 43.8529H15.7234ZM1.84189 50.9431C-2.48463 58.3896 0.985145 69.3164 10.4206 75.6813C19.7046 81.944 30.9294 81.2026 36.3318 74.7062C33.1753 73.8074 29.597 72.7868 26.3108 71.1764C22.0733 69.0997 18.0344 65.6099 17.2194 60.1902C16.4433 56.4781 15.4063 54.4972 14.5468 53.5255C13.6839 52.5492 13.011 52.3118 11.7989 52.1467C10.5867 51.9811 8.9208 52.0993 6.94793 52.0299C5.41045 51.9758 3.60657 51.7553 1.84189 50.9433V50.9431ZM17.2196 60.1901C17.2234 60.2072 17.2271 60.2229 17.2307 60.2402L17.1953 60.0356C17.2025 60.0876 17.2119 60.1382 17.2198 60.1902L17.2196 60.1901Z" fill="#C19977"/>
<path d="M93.725 73V12.25H102.2V40.9L116.15 12.25H124.025L112.025 39.025L125.975 73H117.725L106.1 44.5L102.2 51.55V73H93.725ZM138.434 73.6C135.034 73.6 132.409 72.95 130.559 71.65C128.709 70.3 127.409 68.35 126.659 65.8C125.959 63.2 125.609 60.025 125.609 56.275V46.375C125.609 42.525 125.984 39.325 126.734 36.775C127.484 34.225 128.784 32.3 130.634 31C132.534 29.7 135.134 29.05 138.434 29.05C142.084 29.05 144.759 29.8 146.459 31.3C148.209 32.8 149.359 34.975 149.909 37.825C150.459 40.625 150.734 44 150.734 47.95V51.475H133.634V60.175C133.634 61.925 133.784 63.35 134.084 64.45C134.434 65.55 134.959 66.375 135.659 66.925C136.409 67.425 137.359 67.675 138.509 67.675C139.709 67.675 140.609 67.4 141.209 66.85C141.859 66.25 142.284 65.425 142.484 64.375C142.734 63.275 142.859 62 142.859 60.55V57.925H150.659V59.575C150.659 63.925 149.734 67.35 147.884 69.85C146.034 72.35 142.884 73.6 138.434 73.6ZM133.634 47.125H142.859V43.225C142.859 41.425 142.759 39.925 142.559 38.725C142.359 37.475 141.934 36.55 141.284 35.95C140.684 35.3 139.709 34.975 138.359 34.975C137.059 34.975 136.059 35.275 135.359 35.875C134.709 36.475 134.259 37.5 134.009 38.95C133.759 40.35 133.634 42.3 133.634 44.8V47.125ZM166.176 73.6C162.976 73.6 160.451 72.95 158.601 71.65C156.751 70.35 155.426 68.5 154.626 66.1C153.876 63.7 153.501 60.875 153.501 57.625V45.025C153.501 41.775 153.876 38.95 154.626 36.55C155.426 34.15 156.751 32.3 158.601 31C160.451 29.7 162.976 29.05 166.176 29.05C169.376 29.05 171.876 29.7 173.676 31C175.526 32.3 176.826 34.15 177.576 36.55C178.376 38.95 178.776 41.775 178.776 45.025V57.625C178.776 60.875 178.376 63.7 177.576 66.1C176.826 68.5 175.526 70.35 173.676 71.65C171.876 72.95 169.376 73.6 166.176 73.6ZM166.176 67.675C167.726 67.675 168.801 67.225 169.401 66.325C170.051 65.425 170.426 64.25 170.526 62.8C170.676 61.3 170.751 59.75 170.751 58.15V44.575C170.751 42.925 170.676 41.375 170.526 39.925C170.426 38.475 170.051 37.3 169.401 36.4C168.801 35.45 167.726 34.975 166.176 34.975C164.626 34.975 163.526 35.45 162.876 36.4C162.226 37.3 161.826 38.475 161.676 39.925C161.576 41.375 161.526 42.925 161.526 44.575V58.15C161.526 59.75 161.576 61.3 161.676 62.8C161.826 64.25 162.226 65.425 162.876 66.325C163.526 67.225 164.626 67.675 166.176 67.675ZM184.912 73V35.575H179.737V29.65H184.912V27.4C184.912 24.5 185.212 22.1 185.812 20.2C186.462 18.3 187.537 16.875 189.037 15.925C190.537 14.975 192.587 14.5 195.187 14.5C195.837 14.5 196.512 14.525 197.212 14.575C197.962 14.625 198.737 14.7 199.537 14.8V20.8C199.037 20.7 198.537 20.625 198.037 20.575C197.587 20.525 197.162 20.5 196.762 20.5C195.212 20.5 194.187 20.925 193.687 21.775C193.187 22.625 192.937 24.05 192.937 26.05V29.65H210.637V73H202.612V35.575H192.937V73H184.912ZM203.362 23.2V14.8H210.712V23.2H203.362Z" fill="white"/>
</g>
<defs>
<clipPath id="clip0_5_2">
<rect width="216" height="80" fill="white"/>
</clipPath>
</defs>
</svg>
